/* XPM */
static char *wall_west[] = {
"16 16 3 1",
"X c #000000",
". c #FFFFFF",
"  c #2E8B57",
"XXXXXXXXXXXXXXXX",
"X              X",
"X      .       X",
"X     ..       X",
"X    ...       X",
"X   .........  X",
"X    ...       X",
"X     ..       X",
"X      .       X",
"X              X",
"X              X",
"X              X",
"X              X",
"X              X",
"X              X",
"XXXXXXXXXXXXXXXX"
};