/* XPM */
static char *wall_east[] = {
"16 16 3 1",
"X c #000000",
". c #FFFFFF",
"  c #FFD700",
"XXXXXXXXXXXXXXXX",
"X              X",
"X       .      X",
"X       ..     X",
"X       ...    X",
"X  .........   X",
"X       ...    X",
"X       ..     X",
"X       .      X",
"X              X",
"X              X",
"X              X",
"X              X",
"X              X",
"X              X",
"XXXXXXXXXXXXXXXX"
};